<?xml version="1.0" encoding="UTF-8"?>
<svg width="20px" height="22px" viewBox="0 0 20 22" version="1.1" xmlns="http://www.w3.org/2000/svg" xmlns:xlink="http://www.w3.org/1999/xlink">
    <!-- Generator: sketchtool 50.2 (55047) - http://www.bohemiancoding.com/sketch -->
    <title>4494B4D4-2C5C-4C20-9EA8-75831D63330F</title>
    <desc>Created with sketchtool.</desc>
    <defs></defs>
    <g id="Spez" stroke="none" stroke-width="1" fill="none" fill-rule="evenodd">
        <g id="Assets" transform="translate(-133.000000, -224.000000)">
            <g id="atoms/icons/social/calendar" transform="translate(131.000000, 223.000000)">
                <polygon id="frame" stroke-opacity="0.00784313771" stroke="#000000" stroke-width="1.33333335e-11" points="0 0 23.9999985 0 23.9999985 23.9999985 0 23.9999985"></polygon>
                <path d="M8.9999997,2.99999988 L14.9999992,2.99999988 L14.9999992,2 C14.9999992,1.44771525 15.4477145,1 15.9999992,1 C16.552284,1 16.9999992,1.44771525 16.9999992,2 L16.9999992,2.99999988 L18.999999,2.99999988 C20.8856175,2.99999988 21.9999989,4.11438147 21.9999989,5.99999976 L21.9999989,19.9999989 C21.9999989,21.8856175 20.8856176,22.9999988 18.999999,22.9999988 L4.99999988,22.9999988 C3.11438159,22.9999988 2,21.8856174 2,19.9999989 L2,5.99999976 C2,4.11438159 3.11438171,2.99999988 4.99999988,2.99999988 L6.9999997,2.99999988 L6.9999997,2 C6.9999997,1.44771525 7.44771495,1 7.9999997,1 C8.55228445,1 8.9999997,1.44771525 8.9999997,2 L8.9999997,2.99999988 Z M8.9999997,4.99999988 L8.9999997,5.99999976 C8.9999997,6.55228451 8.55228445,6.99999976 7.9999997,6.99999976 C7.44771495,6.99999976 6.9999997,6.55228451 6.9999997,5.99999976 L6.9999997,4.99999988 L5.0089445,4.99999988 C4.45665975,4.99999988 4.0089445,5.44771513 4.0089445,5.99999988 L4.0089445,8.99999952 L19.999999,8.99999952 L19.999999,5.99999988 C19.999999,5.44771513 19.5522838,4.99999988 18.999999,4.99999988 L16.9999992,4.99999988 L16.9999992,5.99999976 C16.9999992,6.55228451 16.552284,6.99999976 15.9999992,6.99999976 C15.4477145,6.99999976 14.9999992,6.55228451 14.9999992,5.99999976 L14.9999992,4.99999988 L8.9999997,4.99999988 Z M4.0089445,19.9999995 C4.0089445,20.5522843 4.45665975,20.9999995 5.0089445,20.9999995 L18.999999,20.9999995 C19.5522838,20.9999995 19.999999,20.5522843 19.999999,19.9999995 L19.999999,10.9999999 L4.0089445,10.9999999 L4.0089445,19.9999995 Z" id="icon_calendar" fill="#5F5F5F" fill-rule="nonzero"></path>
            </g>
        </g>
    </g>
</svg>