<?xml version="1.0" encoding="UTF-8"?>
<svg width="20px" height="22px" viewBox="0 0 20 22" version="1.1" xmlns="http://www.w3.org/2000/svg" xmlns:xlink="http://www.w3.org/1999/xlink">
    <!-- Generator: sketchtool 50.2 (55047) - http://www.bohemiancoding.com/sketch -->
    <title>940E90FD-10FF-4C48-8710-D1A02F68BBDA</title>
    <desc>Created with sketchtool.</desc>
    <defs></defs>
    <g id="Spez" stroke="none" stroke-width="1" fill="none" fill-rule="evenodd">
        <g id="Assets" transform="translate(-205.000000, -224.000000)">
            <g id="atoms/icons/social/calendar-2" transform="translate(203.000000, 223.000000)">
                <polygon id="frame" stroke-opacity="0.00784313771" stroke="#000000" stroke-width="1.33333335e-11" points="0 0 23.9999985 0 23.9999985 23.9999985 0 23.9999985"></polygon>
                <path d="M5.00000004,2.99999999 L19,2.99999999 C20.8856185,2.99999999 22,4.11438164 22,6.00000003 L22,20 C22,21.8856186 20.8856186,23 19,23 L5.00000004,23 C3.11438165,23 2,21.8856185 2,20 L2,6.00000003 C2,4.11438176 3.11438177,2.99999999 5.00000004,2.99999999 Z M4.0089445,19.9999995 C4.0089445,20.5522843 4.45665975,20.9999995 5.0089445,20.9999995 L18.999999,20.9999995 C19.5522838,20.9999995 19.999999,20.5522843 19.999999,19.9999995 L19.999999,8.9999994 L4.0089445,8.9999994 L4.0089445,19.9999995 Z M7,1 C7.55228475,1 8,1.44771525 8,2 L8,3 L6,3 L6,2 C6,1.44771525 6.44771525,1 7,1 Z M16,1 C16.5522847,1 17,1.44771525 17,2 L17,3 L15,3 L15,2 C15,1.44771525 15.4477153,1 16,1 Z" id="icon_calendar" fill="#5F5F5F" fill-rule="nonzero"></path>
            </g>
        </g>
    </g>
</svg>