<?xml version="1.0" encoding="UTF-8"?>
<svg width="20px" height="20px" viewBox="0 0 20 20" version="1.1" xmlns="http://www.w3.org/2000/svg" xmlns:xlink="http://www.w3.org/1999/xlink">
    <!-- Generator: sketchtool 50.2 (55047) - http://www.bohemiancoding.com/sketch -->
    <title>729863E8-51C0-4450-A372-114B266DD1DB</title>
    <desc>Created with sketchtool.</desc>
    <defs></defs>
    <g id="Spez" stroke="none" stroke-width="1" fill="none" fill-rule="evenodd">
        <g id="Assets" transform="translate(-205.000000, -165.000000)">
            <g id="atoms/icons/24/icon_edit" transform="translate(203.000000, 163.000000)">
                <rect id="frame" x="0" y="0" width="24" height="24"></rect>
                <path d="M20.8147232,2.98076085 C20.2287249,2.37149573 19.425936,2.01895014 18.5814123,2 C17.6733383,2.03803349 16.8122532,2.41458043 16.1671907,3.05572347 L3.82783569,15.4183077 C3.7467458,15.4970562 3.68853014,15.5963749 3.65940163,15.7056644 C3.39115478,16.7051659 2.03744395,21.1467008 2.02496735,21.190429 C1.97028343,21.3781385 2.00652533,21.5806593 2.12289883,21.7376731 C2.23927234,21.8946869 2.42235052,21.9880777 2.61760573,21.9900302 C2.68348552,22.0033233 2.75135151,22.0033233 2.81723129,21.9900302 C2.86713768,21.9900302 7.44604898,20.4970248 8.19464483,20.2721369 C8.29428518,20.2401143 8.3858044,20.1868322 8.46289168,20.1159648 C8.93700238,19.6412016 20.1222721,8.56547553 20.8646296,7.79710875 C21.5585464,7.16843244 21.9682177,6.28484905 22,5.34833005 C21.9395011,4.43148436 21.5121519,3.57786193 20.8147232,2.98076085 Z M17.7181039,3.35977457 L20.5816859,6.24025839 L8.81801675,18.0766586 L6,15.1998111 L17.7181039,3.35977457 Z" id="pencil" fill="#6F717D" fill-rule="nonzero"></path>
            </g>
        </g>
    </g>
</svg>