<?xml version="1.0" encoding="UTF-8"?>
<svg width="22px" height="22px" viewBox="0 0 22 22" version="1.1" xmlns="http://www.w3.org/2000/svg" xmlns:xlink="http://www.w3.org/1999/xlink">
    <!-- Generator: sketchtool 50.2 (55047) - http://www.bohemiancoding.com/sketch -->
    <title>DE0BB25A-BEE0-4F83-9CAE-E0575A235187</title>
    <desc>Created with sketchtool.</desc>
    <defs></defs>
    <g id="Spez" stroke="none" stroke-width="1" fill="none" fill-rule="evenodd">
        <g id="Assets" transform="translate(-564.000000, -164.000000)">
            <g id="atoms/icons/focus" transform="translate(563.000000, 163.000000)">
                <polygon id="Stroke-1" stroke-opacity="0.00784313771" stroke="#000000" stroke-width="1.33333335e-11" points="0 0 23.9999985 0 23.9999985 23.9999985 0 23.9999985"></polygon>
                <path d="M12.9999994,20.9512904 C15.063748,20.7456633 16.8397233,19.8881951 18.3639596,18.3639604 C19.888195,16.8397234 20.7456633,15.063748 20.9512904,12.9999994 L17.999999,12.9999994 C17.4477143,12.9999994 16.999999,12.5522841 16.999999,11.9999994 C16.999999,11.4477147 17.4477143,10.9999994 17.999999,10.9999994 L20.9512904,10.9999994 C20.7456634,8.93624946 19.888195,7.16027339 18.3639604,5.63603871 C16.8397235,4.11180348 15.0637481,3.25433537 12.9999994,3.04870838 L12.9999994,5.99999976 C12.9999994,6.55228451 12.5522841,6.99999976 11.9999994,6.99999976 C11.4477147,6.99999976 10.9999994,6.55228451 10.9999994,5.99999976 L10.9999994,3.04870833 C8.93624941,3.25433526 7.1602733,4.11180352 5.63603836,5.63603827 C4.11180355,7.16027327 3.25433528,8.93624938 3.04870834,10.9999994 L5.99999976,10.9999994 C6.55228451,10.9999994 6.99999976,11.4477147 6.99999976,11.9999994 C6.99999976,12.5522841 6.55228451,12.9999994 5.99999976,12.9999994 L3.04870837,12.9999994 C3.25433535,15.0637481 4.11180341,16.8397234 5.6360383,18.36396 C7.16027333,19.888195 8.93624945,20.7456634 10.9999994,20.9512904 L10.9999994,17.999999 C10.9999994,17.4477143 11.4477147,16.999999 11.9999994,16.999999 C12.5522841,16.999999 12.9999994,17.4477143 12.9999994,17.999999 L12.9999994,20.9512904 Z M22.9999988,11.9999994 C22.9999988,15.0266382 21.9183317,17.6380133 19.7781732,19.7781739 C17.6380133,21.9183317 15.0266382,22.9999988 11.9999994,22.9999988 C8.97335908,22.9999988 6.36198253,21.9183313 4.22182436,19.7781732 C2.08166681,17.6380132 0.999999868,15.0266382 1,11.9999994 C0.999999868,8.9733591 2.08166721,6.36198256 4.2218248,4.22182471 C6.36198256,2.08166721 8.9733591,0.999999868 11.9999994,1 C15.0266382,0.999999868 17.6380132,2.08166681 19.7781736,4.22182476 C21.9183313,6.36198253 22.9999988,8.97335908 22.9999988,11.9999994 Z" id="Combined-Shape" fill="#000000" fill-rule="nonzero"></path>
            </g>
        </g>
    </g>
</svg>