<?xml version="1.0" encoding="UTF-8"?>
<svg width="22px" height="22px" viewBox="0 0 22 22" version="1.1" xmlns="http://www.w3.org/2000/svg" xmlns:xlink="http://www.w3.org/1999/xlink">
    <!-- Generator: sketchtool 50.2 (55047) - http://www.bohemiancoding.com/sketch -->
    <title>F7B2C8F3-5D54-46A7-B4A3-47CF7AE53F7B</title>
    <desc>Created with sketchtool.</desc>
    <defs></defs>
    <g id="Spez" stroke="none" stroke-width="1" fill="none" fill-rule="evenodd">
        <g id="Assets" transform="translate(-348.000000, -224.000000)">
            <g id="atoms/icons/social/instagram" transform="translate(347.000000, 223.000000)">
                <polygon id="frame" stroke-opacity="0.00784313771" stroke="#000000" stroke-width="1.33333335e-11" points="0 0 23.9999985 0 23.9999985 23.9999985 0 23.9999985"></polygon>
                <path d="M17.022,1 C20.318,1 23,3.682 23,6.978 L23,17.022 C23,20.318 20.318,23 17.022,23 L6.978,23 C3.682,23 1,20.318 1,17.022 L1,6.978 C1,3.682 3.682,1 6.978,1 L17.022,1 Z M12,6 C8.691,6 6,8.691 6,12 C6,15.309 8.691,18 12,18 C15.309,18 18,15.309 18,12 C18,8.691 15.309,6 12,6 Z M12,17 C9.243,17 7,14.757 7,12 C7,9.243 9.243,7 12,7 C14.757,7 17,9.243 17,12 C17,14.757 14.757,17 12,17 Z M18,4 C17.449,4 17,4.449 17,5 C17,5.551 17.449,6 18,6 C18.551,6 19,5.551 19,5 C19,4.449 18.551,4 18,4 Z" id="instagram" fill="#5F5F5F" fill-rule="evenodd"></path>
            </g>
        </g>
    </g>
</svg>