<?xml version="1.0" encoding="UTF-8"?>
<svg width="22px" height="18px" viewBox="0 0 22 18" version="1.1" xmlns="http://www.w3.org/2000/svg" xmlns:xlink="http://www.w3.org/1999/xlink">
    <!-- Generator: sketchtool 50.2 (55047) - http://www.bohemiancoding.com/sketch -->
    <title>1856B323-AC0C-4874-9478-BEF975C5687E</title>
    <desc>Created with sketchtool.</desc>
    <defs></defs>
    <g id="Spez" stroke="none" stroke-width="1" fill="none" fill-rule="evenodd">
        <g id="Assets" transform="translate(-276.000000, -166.000000)">
            <g id="atoms/icons/24/icon_mail" transform="translate(275.000000, 163.000000)">
                <g>
                    <polygon id="Stroke-1" stroke-opacity="0.00784313771" stroke="#000000" stroke-width="1.33333335e-11" points="0 0 23.9999985 0 23.9999985 23.9999985 0 23.9999985"></polygon>
                    <path d="M22.9999503,5.98265102 C23.0001126,5.99252128 23.0001289,6.00238853 22.9999999,6.01224937 L22.9999999,17.9999998 C22.9999999,19.6522848 21.6522849,20.9999998 19.9999999,20.9999998 L3.99999988,20.9999998 C2.34771512,20.9999998 0.99999988,19.6522847 0.99999988,17.9999998 L0.99999988,6.01224937 C0.999870843,6.00238853 0.999887159,5.99252128 1.00004943,5.98265102 C1.00944361,4.33829164 2.35350189,2.99999976 3.99999988,2.99999976 L19.9999999,2.99999976 C21.6464982,2.99999976 22.9905562,4.33829154 22.9999503,5.98265102 Z M20.8934225,5.55394825 C20.7280423,5.22692291 20.3879612,4.99999976 19.9999999,4.99999976 L3.99999988,4.99999976 C3.61203876,4.99999976 3.27195754,5.22692297 3.10657733,5.55394829 L11.9999999,11.7793441 L20.8934225,5.55394825 Z M20.9999999,7.9206552 L12.5734622,13.8192316 C12.2291421,14.0602557 11.7708577,14.0602557 11.4265375,13.8192316 L2.99999988,7.9206552 L2.99999988,17.9999998 C2.99999988,18.5477151 3.45228456,18.9999998 3.99999988,18.9999998 L19.9999999,18.9999998 C20.5477154,18.9999998 20.9999999,18.5477153 20.9999999,17.9999998 L20.9999999,7.9206552 Z" id="icon_mail" fill="#000000" fill-rule="nonzero"></path>
                </g>
            </g>
        </g>
    </g>
</svg>