<?xml version="1.0" encoding="UTF-8"?>
<svg width="23px" height="14px" viewBox="0 0 23 14" version="1.1" xmlns="http://www.w3.org/2000/svg" xmlns:xlink="http://www.w3.org/1999/xlink">
    <!-- Generator: sketchtool 50.2 (55047) - http://www.bohemiancoding.com/sketch -->
    <title>07D9B72D-7A80-45EF-B2D8-545FC5312994</title>
    <desc>Created with sketchtool.</desc>
    <defs></defs>
    <g id="Spez" stroke="none" stroke-width="1" fill="none" fill-rule="evenodd">
        <g id="Assets" transform="translate(-492.000000, -229.000000)">
            <g id="atoms/icons/social/mixcloud" transform="translate(491.000000, 223.000000)">
                <polygon id="frame" stroke-opacity="0.00784313771" stroke="#000000" stroke-width="1.33333335e-11" points="0 0 23.9999985 0 23.9999985 23.9999985 0 23.9999985"></polygon>
                <path d="M14.7316667,10.6135833 C16.2936667,10.829 17.5,12.1719167 17.5,13.7916667 C17.5,15.5608333 16.0608333,17 14.2916667,17 L4.66666667,17 C2.6445,17 1,15.3555 1,13.3333333 C1,11.3111667 2.6445,9.66666667 4.66666667,9.66666667 C4.73175,9.66666667 4.79683333,9.66941667 4.861,9.674 C5.46508333,7.52075 7.43866667,6 9.70833333,6 C12.34375,6 14.5135,8.03316667 14.7316667,10.6135833 Z M18.7949157,17.4459171 C18.7042118,17.4459171 18.6125,17.4219175 18.5298586,17.3709183 C18.2930205,17.2259205 18.2204574,16.9179253 18.3655837,16.6829289 C18.9067839,15.8149424 19.1930053,14.8209578 19.1930053,13.8109735 C19.1930053,12.7899893 18.9017448,11.7880048 18.352482,10.9140184 C18.2043322,10.680022 18.2758876,10.3710268 18.5127257,10.2250291 C18.7465403,10.0800313 19.058965,10.1500303 19.2061069,10.3840266 C19.8571597,11.4170106 20.2008269,12.6019922 20.2008269,13.8109735 C20.2008269,15.0069549 19.8632067,16.1819367 19.2242477,17.2089208 C19.1285047,17.3619184 18.9632219,17.4459171 18.7949157,17.4459171 Z M21.2081446,19.2915885 C21.1113938,19.2915885 21.0146429,19.2645889 20.9289781,19.2075898 C20.6971791,19.0545921 20.6346941,18.743597 20.7888908,18.5146005 C21.7231415,17.1246221 22.2159663,15.4926474 22.2159663,13.7916738 C22.2159663,12.0907002 21.7231415,10.4587255 20.7888908,9.06874702 C20.6346941,8.83975057 20.6971791,8.5287554 20.9289781,8.37575777 C21.1567457,8.22276014 21.4721939,8.2837592 21.6273985,8.51475562 C22.6715017,10.0677315 23.2237879,11.8937032 23.2237879,13.7916738 C23.2237879,15.6896443 22.6715017,17.515616 21.6273985,19.0685919 C21.5296398,19.2135897 21.3704039,19.2915885 21.2081446,19.2915885 Z" id="Combined-Shape" fill="#5F5F5F" fill-rule="evenodd"></path>
            </g>
        </g>
    </g>
</svg>