<?xml version="1.0" encoding="UTF-8"?>
<svg width="22px" height="22px" viewBox="0 0 22 22" version="1.1" xmlns="http://www.w3.org/2000/svg" xmlns:xlink="http://www.w3.org/1999/xlink">
    <!-- Generator: sketchtool 50.2 (55047) - http://www.bohemiancoding.com/sketch -->
    <title>10913639-12B6-464F-8FA0-1E6F38B4CFCE</title>
    <desc>Created with sketchtool.</desc>
    <defs></defs>
    <g id="Spez" stroke="none" stroke-width="1" fill="none" fill-rule="evenodd">
        <g id="Assets" transform="translate(-564.000000, -224.000000)">
            <g id="atoms/icons/social/presskit" transform="translate(563.000000, 223.000000)">
                <polygon id="frame" stroke-opacity="0.00784313771" stroke="#000000" stroke-width="1.33333335e-11" points="0 0 23.9999985 0 23.9999985 23.9999985 0 23.9999985"></polygon>
                <path d="M11.5527857,1.10557269 C11.8343132,0.964808944 12.1656854,0.964808944 12.4472129,1.10557269 L22.4472123,6.10557239 C23.1842608,6.47409666 23.1842608,7.5259025 22.4472123,7.89442677 L12.4472129,12.8944265 C12.1656854,13.0351902 11.8343132,13.0351902 11.5527857,12.8944265 L1.55278628,7.89442677 C0.815737745,7.5259025 0.815737745,6.47409666 1.55278628,6.10557239 L11.5527857,1.10557269 Z M11.9999993,3.11803387 L4.23606786,6.99999958 L11.9999993,10.8819653 L19.7639307,6.99999958 L11.9999993,3.11803387 Z M21.5527851,16.1055718 C22.0467636,15.8585825 22.6474366,16.0588069 22.8944259,16.5527854 C23.1414151,17.0467639 22.9411908,17.6474369 22.4472123,17.8944262 L12.4472129,22.8944259 C12.1656854,23.0351896 11.8343132,23.0351896 11.5527857,22.8944259 L1.55278628,17.8944262 C1.05880779,17.6474369 0.85858344,17.0467639 1.10557269,16.5527854 C1.35256194,16.0588069 1.95323498,15.8585825 2.44721348,16.1055718 L11.9999993,20.8819647 L21.5527851,16.1055718 Z M21.5527851,11.1055721 C22.0467636,10.8585828 22.6474366,11.0588072 22.8944259,11.5527857 C23.1414151,12.0467642 22.9411908,12.6474372 22.4472123,12.8944265 L12.4472129,17.8944262 C12.1656854,18.0351899 11.8343132,18.0351899 11.5527857,17.8944262 L1.55278628,12.8944265 C1.05880779,12.6474372 0.85858344,12.0467642 1.10557269,11.5527857 C1.35256194,11.0588072 1.95323498,10.8585828 2.44721348,11.1055721 L11.9999993,15.881965 L21.5527851,11.1055721 Z" id="icon_presskit" fill="#5F5F5F" fill-rule="nonzero"></path>
            </g>
        </g>
    </g>
</svg>