<?xml version="1.0" encoding="UTF-8"?>
<svg width="32px" height="26px" viewBox="0 0 32 26" version="1.1" xmlns="http://www.w3.org/2000/svg" xmlns:xlink="http://www.w3.org/1999/xlink">
    <defs>
        <path d="M0.105572749,11.5527862 C0.246140846,11.27165 0.5099672,10.8026253 0.894335562,10.2074743 C1.53050044,9.22244485 2.28112625,8.23801755 3.14546274,7.31605863 C5.66130768,4.6324907 8.6201975,2.99999976 11.9999999,2.99999976 C15.3798024,2.99999976 18.3386922,4.6324907 20.8545371,7.31605863 C21.7188736,8.23801755 22.4694994,9.22244485 23.1056643,10.2074743 C23.4900327,10.8026253 23.753859,11.27165 23.8944271,11.5527862 C24.0351909,11.8343137 24.0351909,12.1656859 23.8944271,12.4472134 C23.753859,12.7283496 23.4900327,13.1973742 23.1056643,13.7925252 C22.4694994,14.7775547 21.7188736,15.761982 20.8545371,16.6839409 C18.3386922,19.3675088 15.3798024,20.9999998 11.9999999,20.9999998 C8.6201975,20.9999998 5.66130768,19.3675088 3.14546274,16.6839409 C2.28112625,15.761982 1.53050044,14.7775547 0.894335562,13.7925252 C0.5099672,13.1973742 0.246140846,12.7283496 0.105572749,12.4472134 C-0.0351909963,12.1656859 -0.0351909963,11.8343137 0.105572749,11.5527862 Z M2.57441432,12.7074743 C3.14918694,13.5974448 3.82824863,14.4880175 4.60453714,15.3160586 C6.7761922,17.6324907 9.25480238,18.9999998 11.9999999,18.9999998 C14.7451975,18.9999998 17.2238077,17.6324907 19.3954627,15.3160586 C20.1717513,14.4880175 20.8508129,13.5974448 21.4255856,12.7074743 C21.5887227,12.4548749 21.7334113,12.2176301 21.8592878,11.9999998 C21.7334113,11.7823694 21.5887227,11.5451246 21.4255856,11.2925252 C20.8508129,10.4025547 20.1717513,9.51198197 19.3954627,8.68394089 C17.2238077,6.36750882 14.7451975,4.99999976 11.9999999,4.99999976 C9.25480238,4.99999976 6.7761922,6.36750882 4.60453714,8.68394089 C3.82824863,9.51198197 3.14918694,10.4025547 2.57441432,11.2925252 C2.41127718,11.5451246 2.26658856,11.7823694 2.14071212,11.9999998 C2.26658856,12.2176301 2.41127718,12.4548749 2.57441432,12.7074743 Z M15.9999995,11.9999995 C15.9999995,14.5522842 14.5522842,15.9999995 11.9999995,15.9999995 C9.44771471,15.9999995 7.99999946,14.5522842 7.99999946,11.9999995 C7.99999946,9.44771471 9.44771471,7.99999946 11.9999995,7.99999946 C14.5522842,7.99999946 15.9999995,9.44771471 15.9999995,11.9999995 Z M13.9999995,11.9999995 C13.9999995,10.5522842 13.4477147,9.99999946 11.9999995,9.99999946 C10.5522842,9.99999946 9.99999946,10.5522842 9.99999946,11.9999995 C9.99999946,13.4477147 10.5522842,13.9999995 11.9999995,13.9999995 C13.4477147,13.9999995 13.9999995,13.4477147 13.9999995,11.9999995 Z" id="path-1"></path>
        <filter x="-25.0%" y="-33.3%" width="150.0%" height="166.7%" filterUnits="objectBoundingBox" id="filter-2">
            <feOffset dx="0" dy="0" in="SourceAlpha" result="shadowOffsetOuter1"></feOffset>
            <feGaussianBlur stdDeviation="2" in="shadowOffsetOuter1" result="shadowBlurOuter1"></feGaussianBlur>
            <feColorMatrix values="0 0 0 0 0   0 0 0 0 0   0 0 0 0 0  0 0 0 0.5 0" type="matrix" in="shadowBlurOuter1"></feColorMatrix>
        </filter>
    </defs>
    <g id="Pages" stroke="none" stroke-width="1" fill="none" fill-rule="evenodd">
        <g id="mobile_init" transform="translate(-52.000000, -433.000000)">
            <g id="content" transform="translate(24.000000, 216.000000)">
                <g id="slider" transform="translate(24.000000, 74.000000)">
                    <g id="Page-1" transform="translate(8.000000, 144.000000)">
                        <polygon id="Stroke-1" stroke-opacity="0.00784313771" stroke="#000000" stroke-width="1.33333335e-11" points="0 0 23.9999985 0 23.9999985 23.9999985 0 23.9999985"></polygon>
                        <g id="Combined-Shape" fill-rule="nonzero">
                            <use fill="black" fill-opacity="1" filter="url(#filter-2)" xlink:href="#path-1"></use>
                            <use fill="#FFFFFF" fill-rule="evenodd" xlink:href="#path-1"></use>
                        </g>
                    </g>
                </g>
            </g>
        </g>
    </g>
</svg>
