<?xml version="1.0" encoding="UTF-8"?>
<svg width="22px" height="22px" viewBox="0 0 22 22" version="1.1" xmlns="http://www.w3.org/2000/svg" xmlns:xlink="http://www.w3.org/1999/xlink">
    <!-- Generator: sketchtool 50.2 (55047) - http://www.bohemiancoding.com/sketch -->
    <title>3EA0662C-7441-492D-8C69-A66D52277D82</title>
    <desc>Created with sketchtool.</desc>
    <defs></defs>
    <g id="Spez" stroke="none" stroke-width="1" fill="none" fill-rule="evenodd">
        <g id="Assets" transform="translate(-132.000000, -164.000000)">
            <g id="atoms/icons/24/icon_deploy" transform="translate(131.000000, 163.000000)">
                <polygon id="frame" stroke-opacity="0.00784313771" stroke="#000000" stroke-width="1.33333335e-11" points="0 0 23.9999985 0 23.9999985 23.9999985 0 23.9999985"></polygon>
                <path d="M12.5449882,1.16155626 L22.5449882,7.66155626 C22.828781,7.84602159 22.9999999,8.16152416 22.9999999,8.49999988 L22.9999999,15.4999999 C22.9999999,15.8384756 22.828781,16.1539782 22.5449882,16.3384435 L12.5449882,22.8384435 C12.2135905,23.053852 11.7864092,23.053852 11.4550115,22.8384435 L1.45501153,16.3384435 C1.17121872,16.1539782 0.99999988,15.8384756 0.99999988,15.4999999 L0.99999988,8.49999988 C0.99999988,8.16152416 1.17121872,7.84602159 1.45501153,7.66155626 L11.4550115,1.16155626 C11.7864092,0.946147752 12.2135905,0.946147752 12.5449882,1.16155626 Z M11.9999999,3.19268592 L2.99999988,9.04268592 L2.99999988,14.9573138 L11.9999999,20.8073138 L20.9999999,14.9573138 L20.9999999,9.04268592 L11.9999999,3.19268592 Z M11.9999999,14.2793439 L21.4265375,7.68076757 C21.8789868,7.36405306 22.5025173,7.47408785 22.8192318,7.92653715 C23.1359463,8.37898644 23.0259115,9.0025169 22.5734622,9.31923141 L12.5734622,16.3192314 C12.2291421,16.5602555 11.7708577,16.5602555 11.4265375,16.3192314 L1.42653754,9.31923141 C0.974088239,9.0025169 0.864053452,8.37898644 1.18076796,7.92653715 C1.49748247,7.47408785 2.12101293,7.36405306 2.57346222,7.68076757 L11.9999999,14.2793439 Z M11.9999999,9.72065505 L2.57346222,16.3192314 C2.12101293,16.6359459 1.49748247,16.5259111 1.18076796,16.0734618 C0.864053452,15.6210125 0.974088239,14.9974821 1.42653754,14.6807676 L11.4265375,7.68076757 C11.7708577,7.43974346 12.2291421,7.43974346 12.5734622,7.68076757 L22.5734622,14.6807676 C23.0259115,14.9974821 23.1359463,15.6210125 22.8192318,16.0734618 C22.5025173,16.5259111 21.8789868,16.6359459 21.4265375,16.3192314 L11.9999999,9.72065505 Z M12.9999993,21.9999987 C12.9999993,22.5522834 12.552284,22.9999987 11.9999993,22.9999987 C11.4477145,22.9999987 10.9999993,22.5522834 10.9999993,21.9999987 L10.9999993,15.4999991 C10.9999993,14.9477143 11.4477145,14.4999991 11.9999993,14.4999991 C12.552284,14.4999991 12.9999993,14.9477143 12.9999993,15.4999991 L12.9999993,21.9999987 Z M10.9999993,1.99999988 C10.9999993,1.44771513 11.4477145,0.99999988 11.9999993,0.99999988 C12.552284,0.99999988 12.9999993,1.44771513 12.9999993,1.99999988 L12.9999993,8.49999949 C12.9999993,9.05228424 12.552284,9.49999949 11.9999993,9.49999949 C11.4477145,9.49999949 10.9999993,9.05228424 10.9999993,8.49999949 L10.9999993,1.99999988 Z" id="icon_deploy" fill="#6F717D" fill-rule="nonzero"></path>
            </g>
        </g>
    </g>
</svg>