<?xml version="1.0" encoding="UTF-8"?>
<svg width="22px" height="21px" viewBox="0 0 22 21" version="1.1" xmlns="http://www.w3.org/2000/svg" xmlns:xlink="http://www.w3.org/1999/xlink">
    <!-- Generator: sketchtool 50.2 (55047) - http://www.bohemiancoding.com/sketch -->
    <title>70AC1751-17FB-4BEC-A875-F8452CDC5B76</title>
    <desc>Created with sketchtool.</desc>
    <defs></defs>
    <g id="Spez" stroke="none" stroke-width="1" fill="none" fill-rule="evenodd">
        <g id="Assets" transform="translate(-636.000000, -225.000000)">
            <g id="atoms/icons/social/snapchat" transform="translate(635.000000, 223.000000)">
                <polygon id="frame" stroke-opacity="0.00784313771" stroke="#000000" stroke-width="1.33333335e-11" points="0 0 23.9999985 0 23.9999985 23.9999985 0 23.9999985"></polygon>
                <path d="M22.6567931,17.1398814 C20.4961791,16.5788735 18.842489,15.2817717 18.0028104,13.4997465 C18.0028104,13.4988298 18.0046438,13.4942464 18.0083105,13.4914963 L18.0092272,13.4905797 L20.0204224,11.9267241 C20.4787622,11.5692191 20.6630148,10.9587104 20.4796789,10.4077859 C20.2624258,9.75786005 19.5941663,9.36735451 18.9213235,9.49110626 L17.5142202,9.74319317 C17.901059,7.38915978 17.4399691,5.30004681 16.2171184,3.85902637 C15.199604,2.66000936 13.7017494,2 12.000392,2 C10.2990345,2 8.80026323,2.66092604 7.78274879,3.85994305 C6.55898143,5.30188017 6.09880824,7.39190982 6.49114714,9.76061009 C5.88980527,9.65244188 5.08771056,9.50027306 5.08771056,9.50027306 C4.40753425,9.36552115 3.73835809,9.75602669 3.51927165,10.4096193 C3.33593571,10.9596271 3.52018833,11.5683024 3.97852816,11.9239741 L5.99889015,13.4887463 C5.15737822,15.2817717 3.50460477,16.5788735 1.34307411,17.1398814 C1.12948775,17.1957989 0.985569039,17.3965517 1.00115259,17.6174715 C1.02956966,17.9969769 1.17348837,18.2985645 1.42649196,18.5149009 C1.94716601,18.9594906 2.7593442,18.8879896 3.47435434,18.8274887 C3.77594195,18.800905 4.22786503,18.7605711 4.30944952,18.7871548 C4.65687112,19.2225776 4.66695459,19.8706702 4.66695459,19.8752536 C4.66695459,20.1291738 4.87229084,20.3335934 5.12529443,20.3335934 L6.95865377,20.3335934 C7.46374427,20.3335934 8.10633672,20.6883484 8.78742971,21.0641871 C9.72427633,21.5811944 10.7857914,22.1669527 12.000392,22.1669527 C13.2149925,22.1669527 14.2774243,21.5811944 15.2133542,21.0641871 C15.8935305,20.6883484 16.536123,20.3335934 17.0412135,20.3335934 L18.8745728,20.3335934 C19.1266597,20.3335934 19.3310793,20.1291738 19.3329126,19.8770869 C19.3329126,19.8706702 19.3429961,19.2225776 19.6537505,18.8201553 C19.7720022,18.7614878 20.2257586,18.8018217 20.5255129,18.8274887 C21.2396063,18.8879896 22.0527012,18.9594906 22.5733753,18.5149009 C22.8272955,18.2985645 22.9702976,17.9969769 22.9987146,17.6174715 C23.0152149,17.3965517 22.8712962,17.1957989 22.6567931,17.1398814" id="snapchat" fill="#5F5F5F" fill-rule="evenodd"></path>
            </g>
        </g>
    </g>
</svg>