<?xml version="1.0" encoding="UTF-8"?>
<svg width="22px" height="12px" viewBox="0 0 22 12" version="1.1" xmlns="http://www.w3.org/2000/svg" xmlns:xlink="http://www.w3.org/1999/xlink">
    <!-- Generator: sketchtool 50.2 (55047) - http://www.bohemiancoding.com/sketch -->
    <title>34F2DE32-5422-4D06-8882-5CEAE46D65EC</title>
    <desc>Created with sketchtool.</desc>
    <defs></defs>
    <g id="Spez" stroke="none" stroke-width="1" fill="none" fill-rule="evenodd">
        <g id="Assets" transform="translate(-708.000000, -229.000000)">
            <g id="atoms/icons/social/soundcloud" transform="translate(707.000000, 223.000000)">
                <polygon id="frame" stroke-opacity="0.00784313771" stroke="#000000" stroke-width="1.33333335e-11" points="0 0 23.9999985 0 23.9999985 23.9999985 0 23.9999985"></polygon>
                <path d="M18.4148333,11.8135 C18.842,11.6081667 19.3104167,11.5 19.7916667,11.5 C21.5608333,11.5 23,12.9391667 23,14.7083333 C23,16.4775 21.5608333,17.9166667 19.7916667,17.9166667 L12.4583333,17.9166667 C12.2053333,17.9166667 12,17.7113333 12,17.4583333 C12,17.2053333 12,6.71133333 12,6.45833333 C12,6.20533333 12.2053333,6 12.4583333,6 C15.6950833,6 18.3378333,8.59508333 18.4148333,11.8135 Z M1.625,12.4166667 C1.97,12.4166667 2.25,12.622 2.25,12.875 L2.25,16.5416667 C2.25,16.7946667 1.97,17 1.625,17 C1.28,17 1,16.7946667 1,16.5416667 L1,12.875 C1,12.622 1.28,12.4166667 1.625,12.4166667 Z M4.375,9.66666667 C4.72,9.66666667 5,9.872 5,10.125 L5,17.4583333 C5,17.7113333 4.72,17.9166667 4.375,17.9166667 C4.03,17.9166667 3.75,17.7113333 3.75,17.4583333 L3.75,10.125 C3.75,9.872 4.03,9.66666667 4.375,9.66666667 Z M7.125,10.5833333 C7.47,10.5833333 7.75,10.7886667 7.75,11.0416667 L7.75,17.4583333 C7.75,17.7113333 7.47,17.9166667 7.125,17.9166667 C6.78,17.9166667 6.5,17.7113333 6.5,17.4583333 L6.5,11.0416667 C6.5,10.7886667 6.78,10.5833333 7.125,10.5833333 Z M9.875,6.91666667 C10.22,6.91666667 10.5,7.122 10.5,7.375 L10.5,17.4583333 C10.5,17.7113333 10.22,17.9166667 9.875,17.9166667 C9.53,17.9166667 9.25,17.7113333 9.25,17.4583333 L9.25,7.375 C9.25,7.122 9.53,6.91666667 9.875,6.91666667 Z" id="soundcloud" fill="#5F5F5F" fill-rule="evenodd"></path>
            </g>
        </g>
    </g>
</svg>