<?xml version="1.0" encoding="UTF-8"?>
<svg width="22px" height="22px" viewBox="0 0 22 22" version="1.1" xmlns="http://www.w3.org/2000/svg" xmlns:xlink="http://www.w3.org/1999/xlink">
    <!-- Generator: sketchtool 50.2 (55047) - http://www.bohemiancoding.com/sketch -->
    <title>31C4C1F6-BF94-4077-9403-1681F2F0D282</title>
    <desc>Created with sketchtool.</desc>
    <defs></defs>
    <g id="Spez" stroke="none" stroke-width="1" fill="none" fill-rule="evenodd">
        <g id="Assets" transform="translate(-780.000000, -224.000000)">
            <g id="atoms/icons/social/spotify" transform="translate(779.000000, 223.000000)">
                <polygon id="frame" stroke-opacity="0.00784313771" stroke="#000000" stroke-width="1.33333335e-11" points="0 0 23.9999985 0 23.9999985 23.9999985 0 23.9999985"></polygon>
                <path d="M1.0000042,11.9868508 C1.00524436,5.89930418 5.90298104,0.998482176 12.0004693,1.00000035 C18.1056953,1.00146956 23.0139123,5.92192992 22.9944209,12.0342571 C22.9751253,18.0989821 18.0932071,22.9733095 11.9940048,23 C5.89205996,22.9702241 0.994764042,18.0821352 1.0000042,11.9868508 Z M7.78723449,14.3688704 C7.22394188,14.4573654 6.66251026,14.5647152 6.10656367,14.6914095 C5.60194125,14.8064971 5.40766358,15.4046588 5.73157397,15.8041842 C5.94137622,16.062911 6.21631317,16.1026774 6.5316532,16.031568 C7.89904087,15.7232801 9.28097365,15.5510405 10.6864137,15.5920802 C11.4959938,15.6156854 12.2958281,15.7075596 13.0845945,15.8892511 C14.1492283,16.1345101 15.1501477,16.5382962 16.0870097,17.1026173 C16.4396676,17.3150641 16.8625043,17.2094284 17.0620711,16.8746459 C17.2677596,16.5297748 17.1599201,16.1065463 16.8008467,15.8970869 C16.5030392,15.7233291 16.2023422,15.5528035 15.8930259,15.4009858 C14.1323815,14.5367024 12.2576778,14.1845833 10.2128404,14.174005 C9.46379154,14.1812041 8.62169308,14.2379154 7.78723449,14.3688704 Z M10.2617649,10.5832718 C9.28445077,10.5874345 8.40503455,10.6361141 7.53874321,10.7982652 C7.18236342,10.865016 6.82818744,10.9430307 6.47601937,11.0289791 C6.30182081,11.0714391 6.12811199,11.115907 5.95479495,11.1618931 C5.79269283,11.2048917 5.62148166,11.2386345 5.48063402,11.3345734 C5.22846973,11.5063233 5.0910992,11.8163253 5.11920996,12.1184425 C5.14261927,12.3700191 5.27646371,12.6138089 5.48273988,12.7609251 C5.71213151,12.9246434 6.00719654,12.9531459 6.27356313,12.8740048 C7.23853597,12.5871673 8.2249102,12.4161031 9.22744567,12.3694314 C9.8832981,12.338872 10.5440968,12.3486177 11.1994106,12.3907838 C11.8127051,12.4303054 12.4272239,12.5068509 13.0315563,12.6189021 C14.5183902,12.8946227 15.9296581,13.3866589 17.2286788,14.1766496 C17.4483247,14.3101512 17.6900087,14.3359113 17.9360513,14.2484937 C18.2978671,14.1199383 18.5038984,13.8573917 18.5335763,13.4800513 C18.5610994,13.1303808 18.4112407,12.8472164 18.1060871,12.6711078 C17.7291385,12.4534209 17.350035,12.2360277 16.9566313,12.0507612 C14.8071376,11.0385779 12.530313,10.6044773 10.2617649,10.5832718 Z M12.8405598,9.03365389 C13.6447038,9.10579178 14.4358699,9.26231092 15.2184656,9.45972289 C16.3759531,9.75175157 17.4872586,10.1610717 18.5202556,10.7681955 C18.7004289,10.8740761 18.8991142,10.9273592 19.1073493,10.9061537 C19.6035482,10.85576 19.9648744,10.5310171 20.0657107,10.0575418 C20.1571441,9.62833848 19.9482724,9.184688 19.5345936,8.94153483 C18.8601803,8.54504579 18.1513875,8.22157616 17.4171286,7.95266295 C15.7502193,7.34225788 14.0234155,7.00664284 12.2590001,6.87309224 C11.4595575,6.81261003 10.654434,6.81246311 9.85180817,6.80986752 C8.79770366,6.80643938 7.7507003,6.91266279 6.71603824,7.1120337 C6.174196,7.21644509 5.63627164,7.34808572 5.10461588,7.49613246 C4.62526376,7.62963408 4.36168866,8.0529116 4.38162085,8.58314713 C4.39758619,9.00853051 4.73241766,9.39414745 5.18145522,9.50399489 C5.45413938,9.57064776 5.69590015,9.48561185 5.96840957,9.41868314 C7.53610908,9.03365389 8.9152739,8.86026679 10.3972255,8.8897699 C10.5987022,8.88433384 12.0281393,8.9607814 12.8405598,9.03365389 Z" id="icon_spotify" fill="#5F5F5F" fill-rule="evenodd"></path>
            </g>
        </g>
    </g>
</svg>