<?xml version="1.0" encoding="UTF-8"?>
<svg width="24px" height="20px" viewBox="0 0 24 20" version="1.1" xmlns="http://www.w3.org/2000/svg" xmlns:xlink="http://www.w3.org/1999/xlink">
    <!-- Generator: sketchtool 50.2 (55047) - http://www.bohemiancoding.com/sketch -->
    <title>59D7E004-3B4E-45C2-91A0-0050F938715F</title>
    <desc>Created with sketchtool.</desc>
    <defs></defs>
    <g id="Spez" stroke="none" stroke-width="1" fill="none" fill-rule="evenodd">
        <g id="Assets" transform="translate(-347.000000, -165.000000)">
            <g id="atoms/icons/24/icon_themes" transform="translate(347.000000, 163.000000)">
                <rect id="frame" x="0" y="0" width="24" height="24"></rect>
                <path d="M22.5,18.1476355 C22.5,18.1476355 12.75,18.1476355 12.75,18.1476355 C12.75,18.1476355 12.75,20.46213 12.75,20.46213 C12.75,20.46213 16.5,20.46213 16.5,20.46213 C16.9125,20.46213 17.25,20.8081507 17.25,21.231065 C17.25,21.6539792 16.9125,22 16.5,22 C16.5,22 7.5,22 7.5,22 C7.0875,22 6.75,21.6539792 6.75,21.231065 C6.75,20.8081507 7.0875,20.46213 7.5,20.46213 C7.5,20.46213 11.25,20.46213 11.25,20.46213 C11.25,20.46213 11.25,18.1476355 11.25,18.1476355 C11.25,18.1476355 1.5,18.1476355 1.5,18.1476355 C0.675,18.1476355 0,17.455594 0,16.6097655 C0,16.6097655 0,3.53787005 0,3.53787005 C0,2.69204152 0.675,2 1.5,2 C1.5,2 22.5,2 22.5,2 C23.325,2 24,2.69204152 24,3.53787005 C24,3.53787005 24,16.6097655 24,16.6097655 C24,17.455594 23.325,18.1476355 22.5,18.1476355 Z M22.5,3.53787005 C22.5,3.53787005 1.5,3.53787005 1.5,3.53787005 C1.5,3.53787005 1.5,16.6097655 1.5,16.6097655 C1.5,16.6097655 22.5,16.6097655 22.5,16.6097655 C22.5,16.6097655 22.5,3.53787005 22.5,3.53787005 Z" id="Desktop-Highlighted" fill="#27E200" fill-rule="nonzero"></path>
            </g>
        </g>
    </g>
</svg>