<?xml version="1.0" encoding="UTF-8"?>
<svg width="20px" height="22px" viewBox="0 0 20 22" version="1.1" xmlns="http://www.w3.org/2000/svg" xmlns:xlink="http://www.w3.org/1999/xlink">
    <!-- Generator: sketchtool 50.2 (55047) - http://www.bohemiancoding.com/sketch -->
    <title>22BF041C-DDBD-43B0-A148-BED0F7C84EB3</title>
    <desc>Created with sketchtool.</desc>
    <defs></defs>
    <g id="Spez" stroke="none" stroke-width="1" fill="none" fill-rule="evenodd">
        <g id="Assets" transform="translate(-421.000000, -164.000000)">
            <g id="atoms/icons/24/icon_trash" transform="translate(419.000000, 163.000000)">
                <g id="atoms/icons/24/icon_x">
                    <polygon id="Stroke-1" stroke-opacity="0.00784313771" stroke="#000000" stroke-width="1.33333335e-11" points="0 0 23.9999985 0 23.9999985 23.9999985 0 23.9999985"></polygon>
                    <path d="M16.999999,4.99999964 L20.9999987,4.99999964 C21.5522835,4.99999964 21.9999987,5.44771489 21.9999987,5.99999964 C21.9999987,6.55228439 21.5522835,6.99999964 20.9999987,6.99999964 L19.9999989,6.99999964 L19.9999989,19.9999988 C19.9999989,21.8856174 18.8856175,22.9999987 16.999999,22.9999987 L6.99999958,22.9999987 C5.11438129,22.9999987 3.9999997,21.8856173 3.9999997,19.9999988 L3.9999997,6.99999964 L2.99999982,6.99999964 C2.44771507,6.99999964 1.99999982,6.55228439 1.99999982,5.99999964 C1.99999982,5.44771489 2.44771507,4.99999964 2.99999982,4.99999964 L6.99999952,4.99999964 L6.99999952,3.99999976 C6.99999952,3.1824982 7.30061859,2.45673986 7.87867908,1.87868008 C8.45673948,1.30061897 9.18249767,0.99999988 9.9999994,0.99999988 L13.9999992,0.99999988 C15.885617,0.99999988 16.999999,2.11438174 16.999999,3.99999976 L16.999999,4.99999964 Z M14.999999,4.99999964 L14.999999,3.99999976 C14.999999,3.21895132 14.7810476,2.99999988 13.9999992,2.99999988 L9.9999994,2.99999988 C9.71293103,2.99999988 9.49588105,3.08990499 9.29289264,3.29289364 C9.08990465,3.49588138 8.99999952,3.71293149 8.99999952,3.99999976 L8.99999952,4.99999964 L14.999999,4.99999964 Z M17.9999989,6.99999964 L5.9999997,6.99999964 L5.9999997,19.9999988 C5.9999997,20.7810477 6.21895073,20.9999987 6.99999958,20.9999987 L16.999999,20.9999987 C17.7810481,20.9999987 17.9999989,20.7810479 17.9999989,19.9999988 L17.9999989,6.99999964 Z M8.9999994,10.9999993 C8.9999994,10.4477146 9.44771465,9.99999934 9.9999994,9.99999934 C10.5522841,9.99999934 10.9999994,10.4477146 10.9999994,10.9999993 L10.9999994,16.999999 C10.9999994,17.5522837 10.5522841,17.999999 9.9999994,17.999999 C9.44771465,17.999999 8.9999994,17.5522837 8.9999994,16.999999 L8.9999994,10.9999993 Z M12.9999992,10.9999993 C12.9999992,10.4477146 13.4477144,9.99999934 13.9999992,9.99999934 C14.5522839,9.99999934 14.9999992,10.4477146 14.9999992,10.9999993 L14.9999992,16.999999 C14.9999992,17.5522837 14.5522839,17.999999 13.9999992,17.999999 C13.4477144,17.999999 12.9999992,17.5522837 12.9999992,16.999999 L12.9999992,10.9999993 Z" id="Combined-Shape" fill="#000000" fill-rule="nonzero"></path>
                </g>
            </g>
        </g>
    </g>
</svg>