<?xml version="1.0" encoding="UTF-8"?>
<svg width="22px" height="18px" viewBox="0 0 22 18" version="1.1" xmlns="http://www.w3.org/2000/svg" xmlns:xlink="http://www.w3.org/1999/xlink">
    <!-- Generator: sketchtool 50.2 (55047) - http://www.bohemiancoding.com/sketch -->
    <title>5A0C1B9B-DEE5-47D9-AE66-A1082CF790D6</title>
    <desc>Created with sketchtool.</desc>
    <defs></defs>
    <g id="Spez" stroke="none" stroke-width="1" fill="none" fill-rule="evenodd">
        <g id="Assets" transform="translate(-852.000000, -226.000000)">
            <g id="atoms/icons/social/twitter" transform="translate(851.000000, 223.000000)">
                <polygon id="frame" stroke-opacity="0.00784313771" stroke="#000000" stroke-width="1.33333335e-11" points="0 0 23.9999985 0 23.9999985 23.9999985 0 23.9999985"></polygon>
                <path d="M22.9999994,3.07370953 C22.036117,3.75360727 20.9894499,4.26360699 19.8600002,4.60370917 C18.4907452,3.02931408 16.8314397,2.61413151 14.8820818,3.35816194 C12.9327239,4.10219238 11.9720307,5.51737536 12.000001,7.6037109 L12.0000001,8.60370893 C8.19024495,8.70249527 5.19024608,7.19249561 3.00000179,4.07371042 C3.0000006,4.07370947 -0.999999164,13.0737089 8.0000003,17.0737087 C5.88615459,18.508584 3.55282148,19.1752501 1,19.0737086 C10.0000002,24.0737083 20.9999995,19.0737086 20.9999995,7.57370926 C20.9990763,7.29456116 20.9724097,7.01789454 20.9199995,6.74370938 C21.9607863,5.71729743 22.6541188,4.49396462 22.9999994,3.07370976 L22.9999994,3.07370953 Z" id="twitter" fill="#5F5F5F" fill-rule="evenodd"></path>
            </g>
        </g>
    </g>
</svg>