<?xml version="1.0" encoding="UTF-8"?>
<svg width="14px" height="14px" viewBox="0 0 14 14" version="1.1" xmlns="http://www.w3.org/2000/svg" xmlns:xlink="http://www.w3.org/1999/xlink">
    <!-- Generator: sketchtool 50.2 (55047) - http://www.bohemiancoding.com/sketch -->
    <title>BBA533A8-2A67-4479-BB14-86B2AD46A7D9</title>
    <desc>Created with sketchtool.</desc>
    <defs></defs>
    <g id="Spez" stroke="none" stroke-width="1" fill="none" fill-rule="evenodd">
        <g id="Assets" transform="translate(-496.000000, -168.000000)">
            <g id="atoms/icons/24/icon_x" transform="translate(491.000000, 163.000000)">
                <g>
                    <polygon id="Stroke-1" stroke-opacity="0.00784313771" stroke="#000000" stroke-width="1.33333335e-11" points="0 0 23.9999985 0 23.9999985 23.9999985 0 23.9999985"></polygon>
                    <path d="M13.4142132,11.9999996 L18.7071064,17.2928929 C19.0976307,17.6834172 19.0976307,18.3165821 18.7071064,18.7071064 C18.3165821,19.0976307 17.6834172,19.0976307 17.2928929,18.7071064 L11.9999996,13.4142132 L6.70710642,18.7071064 C6.31658213,19.0976307 5.68341715,19.0976307 5.29289286,18.7071064 C4.90236857,18.3165821 4.90236857,17.6834172 5.29289286,17.2928929 L10.5857861,11.9999996 L5.29289286,6.70710642 C4.90236857,6.31658213 4.90236857,5.68341715 5.29289286,5.29289286 C5.68341715,4.90236857 6.31658213,4.90236857 6.70710642,5.29289286 L11.9999996,10.5857861 L17.2928929,5.29289286 C17.6834172,4.90236857 18.3165821,4.90236857 18.7071064,5.29289286 C19.0976307,5.68341715 19.0976307,6.31658213 18.7071064,6.70710642 L13.4142132,11.9999996 Z" id="icon_x" fill="#000000" fill-rule="nonzero"></path>
                </g>
            </g>
        </g>
    </g>
</svg>