<?xml version="1.0" encoding="UTF-8"?>
<svg width="22px" height="17px" viewBox="0 0 22 17" version="1.1" xmlns="http://www.w3.org/2000/svg" xmlns:xlink="http://www.w3.org/1999/xlink">
    <!-- Generator: sketchtool 50.2 (55047) - http://www.bohemiancoding.com/sketch -->
    <title>199C4D2D-6115-4E36-AB55-95640CF6AE53</title>
    <desc>Created with sketchtool.</desc>
    <defs></defs>
    <g id="Spez" stroke="none" stroke-width="1" fill="none" fill-rule="evenodd">
        <g id="Assets" transform="translate(-420.000000, -227.000000)">
            <g id="atoms/icons/social/instagram-(1)" transform="translate(419.000000, 223.000000)">
                <polygon id="frame" stroke-opacity="0.00784313771" stroke="#000000" stroke-width="1.33333335e-11" points="0 0 23.9999985 0 23.9999985 23.9999985 0 23.9999985"></polygon>
                <path d="M10.1666667,15.5336375 L10.1666667,8.96297083 L15.2770833,12.2483042 L10.1666667,15.5336375 Z M20.1895,4.61760417 C21.7918333,4.8174375 23,6.1869375 23,7.8011875 L23,16.6956042 C23,18.3098542 21.7918333,19.6784375 20.1895,19.8791875 L18.44875,20.0964375 C16.3165833,20.3631875 14.1468333,20.4979375 12,20.4979375 C9.85316667,20.4979375 7.68341667,20.3631875 5.55125,20.0964375 L3.8105,19.8791875 C2.20816667,19.6784375 1,18.3098542 1,16.6956042 L1,7.8011875 C1,6.1869375 2.20816667,4.8174375 3.8105,4.61760417 L5.55125,4.3994375 C9.81466667,3.86685417 14.1853333,3.86685417 18.44875,4.3994375 L20.1895,4.61760417 Z" id="youtube" fill="#5F5F5F" fill-rule="evenodd"></path>
            </g>
        </g>
    </g>
</svg>